<?xml version="1.0" encoding="utf-8"?>
<!-- Generator: Adobe Illustrator 17.1.0, SVG Export Plug-In . SVG Version: 6.00 Build 0)  -->
<!DOCTYPE svg PUBLIC "-//W3C//DTD SVG 1.1//EN" "http://www.w3.org/Graphics/SVG/1.1/DTD/svg11.dtd">
<svg version="1.1" id="Layer_1" xmlns="http://www.w3.org/2000/svg" xmlns:xlink="http://www.w3.org/1999/xlink" x="0px" y="0px"
	 viewBox="0 0 191.2308 64" enable-background="new 0 0 191.2308 64" xml:space="preserve">
<path fill="#88A73D" d="M44.6002,49.9224v-9.6447c0-1.9278-1.5628-3.4905-3.4905-3.4905h-2.6036
	c-1.9278,0-3.4905-1.5628-3.4905-3.4905v-2.5502c0-1.9278,1.5628-3.4905,3.4905-3.4905h12.2771
	c1.9278,0,3.4905,1.5628,3.4905,3.4905l-0.0001,29.2499c0,1.9923-1.666,3.5988-3.6552,3.487
	C22.4801,61.9025,0.5004,48.412,0.5004,32.0038c0-16.4082,21.9797-29.8988,50.118-31.4796c1.9892-0.1118,3.6552,1.4947,3.6552,3.487
	l0,0.5072c0,1.7496-1.2993,3.2187-3.0327,3.4566c-20.1283,2.7624-34.6402,11.7742-35.1133,23.7198
	c0,0-1.3981,14.5017,24.0302,21.5886C42.3868,53.9046,44.6002,52.2363,44.6002,49.9224z"/>
<path fill="#88A73D" d="M58.1147,59.9849c0,1.9976,1.6746,3.6077,3.6685,3.4865c21.0138-1.2775,35.1921-7.9964,42.8766-16.4209
	c0.8538-1.3092-1.046-0.1086-1.1385-0.0569c-10.6533,5.951-16.7046,8.3016-32.0287,9.1016
	c-2.0089,0.1049-3.7045-1.473-3.7045-3.4846V4.0962c0-1.8564-1.4515-3.3905-3.3055-3.4859c-0.8973-0.0462-1.8365-0.0859-2.747-0.119
	c-1.9778-0.0719-3.621,1.5091-3.621,3.4882L58.1147,59.9849z"/>
<path fill="#88A73D" d="M87.7186,34.1836c0,2.708-0.6992,4.8462-2.0967,6.4155c-1.3979,1.5698-3.4087,2.354-6.0337,2.354
	s-4.6304-0.7842-6.0156-2.354c-1.3857-1.5693-2.0786-3.7075-2.0786-6.4155v-2.7314c0-2.7075,0.6929-4.8462,2.0786-6.4155
	c1.3853-1.5693,3.3906-2.3545,6.0156-2.3545s4.6357,0.7852,6.0337,2.3545c1.3975,1.5693,2.0967,3.708,2.0967,6.4155V34.1836z
	 M84.5101,34.1836v-2.7314c0-4.0015-1.6406-6.0024-4.9219-6.0024c-3.2573,0-4.8857,2.001-4.8857,6.0024v2.7314
	c0,4.002,1.6284,6.002,4.8857,6.002c1.6523,0,2.8857-0.521,3.7007-1.5635C84.1029,37.5801,84.5101,36.1006,84.5101,34.1836z"/>
<path fill="#88A73D" d="M107.4427,34.1475c0,2.8521-0.6689,5.0317-2.0054,6.5415c-1.3369,1.5093-3.3174,2.2642-5.9429,2.2642
	c-1.3613,0-2.7832-0.1318-4.2656-0.395v6.5054c0,0.1914-0.0669,0.353-0.2002,0.4849c-0.1343,0.1318-0.2983,0.1978-0.4922,0.1978
	h-1.8599c-0.1948,0-0.3525-0.0659-0.4736-0.1978c-0.1221-0.1318-0.1826-0.2935-0.1826-0.4849v-24.728
	c0-0.2393,0.0488-0.4189,0.146-0.5391c0.0967-0.1196,0.3037-0.2158,0.6196-0.2876c2.2847-0.5508,4.521-0.8267,6.7085-0.8267
	c2.6494,0,4.6362,0.7852,5.9614,2.3545c1.3242,1.5693,1.9868,3.7437,1.9868,6.5229V34.1475z M104.2342,34.1475v-2.5879
	c0-2.0127-0.3589-3.5518-1.0752-4.6182c-0.7173-1.0659-1.939-1.5996-3.6646-1.5996c-1.4824,0-2.9048,0.1201-4.2656,0.3594v14.2329
	c1.3364,0.2397,2.7583,0.3594,4.2656,0.3594c1.7012,0,2.917-0.5146,3.646-1.5454C103.87,37.7183,104.2342,36.1846,104.2342,34.1475z
	"/>
<path fill="#88A73D" d="M127.203,33.0332c0,0.5273-0.2314,0.791-0.6929,0.791h-12.2139v0.5029c0,2.085,0.4131,3.5825,1.2397,4.4927
	c0.8262,0.9111,2.1021,1.3657,3.8281,1.3657c2.5762,0,4.7397-0.1313,6.4897-0.395h0.1821c0.3887,0,0.5835,0.168,0.5835,0.5029
	v1.2222c0,0.4556-0.2432,0.731-0.729,0.8267c-2.1392,0.4072-4.3149,0.6108-6.5264,0.6108c-1.1182,0-2.1455-0.1436-3.0806-0.4312
	c-0.936-0.2876-1.8047-0.7427-2.6069-1.3657s-1.4346-1.5151-1.896-2.6777c-0.4619-1.1621-0.6929-2.5459-0.6929-4.1514v-3.2344
	c0-2.6118,0.7051-4.6665,2.1147-6.1641s3.4028-2.2466,5.9795-2.2466c2.6006,0,4.5874,0.749,5.9609,2.2466
	c1.373,1.4976,2.0601,3.5522,2.0601,6.1641V33.0332z M123.9579,31.416v-0.3232c0-1.9888-0.3892-3.4263-1.1665-4.313
	c-0.7783-0.8862-1.9814-1.3301-3.6094-1.3301c-3.2573,0-4.8857,1.8813-4.8857,5.6431v0.3232H123.9579z"/>
<path fill="#88A73D" d="M140.5833,24.8027c0,0.4077-0.2554,0.6108-0.7661,0.6108c-1.6528,0-3.3301,0.5034-5.0313,1.5098v15.0596
	c0,0.1919-0.0728,0.3594-0.2188,0.5029c-0.1455,0.144-0.3159,0.2158-0.5103,0.2158h-1.7866c-0.1948,0-0.3589-0.0718-0.4922-0.2158
	c-0.1338-0.1436-0.2007-0.311-0.2007-0.5029V23.6528c0-0.1919,0.0669-0.3594,0.2007-0.5034
	c0.1333-0.1436,0.2974-0.2158,0.4922-0.2158h1.7139c0.1938,0,0.3579,0.0723,0.4922,0.2158c0.1333,0.144,0.2002,0.3115,0.2002,0.5034
	v0.7544c1.6772-1.1499,3.3906-1.7251,5.1406-1.7251c0.5107,0,0.7661,0.2158,0.7661,0.647V24.8027z"/>
<path fill="#88A73D" d="M157.0262,41.9829c0,0.1919-0.0728,0.3594-0.2188,0.5029c-0.1455,0.144-0.3159,0.2158-0.5103,0.2158H154.62
	c-0.1948,0-0.3643-0.0718-0.5103-0.2158c-0.146-0.1436-0.2188-0.311-0.2188-0.5029v-0.791
	c-2.042,1.1743-3.9136,1.7612-5.6147,1.7612c-1.75,0-3.1782-0.4492-4.2842-1.3477s-1.6587-2.3901-1.6587-4.4746v-0.4316
	c0-1.9883,0.6743-3.4556,2.0234-4.4028c1.3491-0.9463,3.603-1.4194,6.7632-1.4194h2.6982v-1.4375c0-1.5098-0.292-2.564-0.875-3.1631
	c-0.5835-0.5986-1.5923-0.8984-3.0264-0.8984c-1.7744,0-3.6338,0.0957-5.5781,0.2876h-0.1826c-0.4375,0-0.6563-0.1919-0.6563-0.5752
	v-1.2578c0-0.3833,0.2554-0.6113,0.7656-0.6831c1.8472-0.311,3.731-0.4673,5.6514-0.4673c4.7397,0,7.1094,2.2524,7.1094,6.7573
	V41.9829z M153.8182,38.9277v-5.7866H151.12c-2.1636,0-3.6338,0.2578-4.4116,0.7729c-0.7778,0.5156-1.1665,1.4321-1.1665,2.7495
	v0.4312c0,1.2222,0.2734,2.0728,0.8203,2.5518c0.5469,0.48,1.3911,0.7188,2.5337,0.7188
	C150.3783,40.3652,152.0189,39.8862,153.8182,38.9277z"/>
<path fill="#88A73D" d="M171.7562,42.1626c0,0.3359-0.2188,0.5391-0.6563,0.6108c-0.8022,0.1196-1.5923,0.1797-2.3701,0.1797
	c-1.7744,0-3.0444-0.3291-3.8101-0.9883c-0.7656-0.6587-1.1484-1.9346-1.1484-3.8276V25.5933l-3.5366-0.395
	c-0.4619-0.0479-0.6924-0.2637-0.6924-0.647v-0.9707c0-0.4312,0.2305-0.647,0.6924-0.647h3.5366v-3.522
	c0-0.4072,0.2188-0.647,0.6563-0.7188l1.896-0.2876h0.1094c0.3647,0,0.5469,0.2036,0.5469,0.6108v3.9175h3.9375
	c0.1943,0,0.3647,0.0723,0.5107,0.2158c0.1455,0.144,0.2188,0.3115,0.2188,0.5034v1.2217c0,0.1924-0.0732,0.3594-0.2188,0.5034
	c-0.146,0.1436-0.3164,0.2153-0.5107,0.2153h-3.9375v12.5439c0,0.9585,0.1333,1.5757,0.4009,1.8511s0.7896,0.4131,1.5679,0.4131
	h2.042c0.5103,0,0.7656,0.168,0.7656,0.5034V42.1626z"/>
<path fill="#88A73D" d="M190.6053,33.0332c0,0.5273-0.2314,0.791-0.6929,0.791h-12.2139v0.5029c0,2.085,0.4131,3.5825,1.2397,4.4927
	c0.8262,0.9111,2.1021,1.3657,3.8281,1.3657c2.5762,0,4.7397-0.1313,6.4897-0.395h0.1821c0.3887,0,0.5835,0.168,0.5835,0.5029
	v1.2222c0,0.4556-0.2432,0.731-0.729,0.8267c-2.1392,0.4072-4.3149,0.6108-6.5264,0.6108c-1.1182,0-2.1455-0.1436-3.0806-0.4312
	c-0.936-0.2876-1.8047-0.7427-2.6069-1.3657s-1.4346-1.5151-1.896-2.6777c-0.4619-1.1621-0.6929-2.5459-0.6929-4.1514v-3.2344
	c0-2.6118,0.7051-4.6665,2.1147-6.1641s3.4028-2.2466,5.9795-2.2466c2.6006,0,4.5874,0.749,5.9609,2.2466
	c1.373,1.4976,2.0601,3.5522,2.0601,6.1641V33.0332z M187.3602,31.416v-0.3232c0-1.9888-0.3892-3.4263-1.1665-4.313
	c-0.7783-0.8862-1.9814-1.3301-3.6094-1.3301c-3.2573,0-4.8857,1.8813-4.8857,5.6431v0.3232H187.3602z"/>
</svg>
