<?xml version="1.0" encoding="utf-8"?>
<!-- Generator: Adobe Illustrator 17.1.0, SVG Export Plug-In . SVG Version: 6.00 Build 0)  -->
<!DOCTYPE svg PUBLIC "-//W3C//DTD SVG 1.1//EN" "http://www.w3.org/Graphics/SVG/1.1/DTD/svg11.dtd">
<svg version="1.1" id="Layer_1" xmlns="http://www.w3.org/2000/svg" xmlns:xlink="http://www.w3.org/1999/xlink" x="0px" y="0px"
	 viewBox="0 0 191.2 64" enable-background="new 0 0 191.2 64" xml:space="preserve">
<path fill="#88A73D" d="M44.6,49.9v-9.6c0-1.9-1.6-3.5-3.5-3.5h-2.6c-1.9,0-3.5-1.6-3.5-3.5v-2.6c0-1.9,1.6-3.5,3.5-3.5h12.3
	c1.9,0,3.5,1.6,3.5,3.5l0,29.2c0,2-1.7,3.6-3.7,3.5C22.5,61.9,0.5,48.4,0.5,32c0-16.4,22-29.9,50.1-31.5c2-0.1,3.7,1.5,3.7,3.5
	l0,0.5c0,1.7-1.3,3.2-3,3.5c-20.1,2.8-34.6,11.8-35.1,23.7c0,0-1.4,14.5,24,21.6C42.4,53.9,44.6,52.2,44.6,49.9z"/>
<path fill="#88A73D" d="M58.1,60c0,2,1.7,3.6,3.7,3.5c21-1.3,35.2-8,42.9-16.4c0.9-1.3-1-0.1-1.1-0.1c-10.7,6-16.7,8.3-32,9.1
	c-2,0.1-3.7-1.5-3.7-3.5V4.1c0-1.9-1.5-3.4-3.3-3.5c-0.9,0-1.8-0.1-2.7-0.1c-2-0.1-3.6,1.5-3.6,3.5L58.1,60z"/>
<path fill="#88A73D" d="M87.7,34.2c0,2.7-0.7,4.8-2.1,6.4c-1.4,1.6-3.4,2.4-6,2.4s-4.6-0.8-6-2.4c-1.4-1.6-2.1-3.7-2.1-6.4v-2.7
	c0-2.7,0.7-4.8,2.1-6.4c1.4-1.6,3.4-2.4,6-2.4s4.6,0.8,6,2.4c1.4,1.6,2.1,3.7,2.1,6.4V34.2z M84.5,34.2v-2.7c0-4-1.6-6-4.9-6
	c-3.3,0-4.9,2-4.9,6v2.7c0,4,1.6,6,4.9,6c1.7,0,2.9-0.5,3.7-1.6C84.1,37.6,84.5,36.1,84.5,34.2z"/>
<path fill="#88A73D" d="M107.4,34.1c0,2.9-0.7,5-2,6.5c-1.3,1.5-3.3,2.3-5.9,2.3c-1.4,0-2.8-0.1-4.3-0.4v6.5c0,0.2-0.1,0.4-0.2,0.5
	c-0.1,0.1-0.3,0.2-0.5,0.2h-1.9c-0.2,0-0.4-0.1-0.5-0.2c-0.1-0.1-0.2-0.3-0.2-0.5V24.3c0-0.2,0-0.4,0.1-0.5c0.1-0.1,0.3-0.2,0.6-0.3
	c2.3-0.6,4.5-0.8,6.7-0.8c2.6,0,4.6,0.8,6,2.4c1.3,1.6,2,3.7,2,6.5V34.1z M104.2,34.1v-2.6c0-2-0.4-3.6-1.1-4.6
	c-0.7-1.1-1.9-1.6-3.7-1.6c-1.5,0-2.9,0.1-4.3,0.4v14.2c1.3,0.2,2.8,0.4,4.3,0.4c1.7,0,2.9-0.5,3.6-1.5
	C103.9,37.7,104.2,36.2,104.2,34.1z"/>
<path fill="#88A73D" d="M127.2,33c0,0.5-0.2,0.8-0.7,0.8h-12.2v0.5c0,2.1,0.4,3.6,1.2,4.5c0.8,0.9,2.1,1.4,3.8,1.4
	c2.6,0,4.7-0.1,6.5-0.4h0.2c0.4,0,0.6,0.2,0.6,0.5v1.2c0,0.5-0.2,0.7-0.7,0.8c-2.1,0.4-4.3,0.6-6.5,0.6c-1.1,0-2.1-0.1-3.1-0.4
	c-0.9-0.3-1.8-0.7-2.6-1.4s-1.4-1.5-1.9-2.7c-0.5-1.2-0.7-2.5-0.7-4.2v-3.2c0-2.6,0.7-4.7,2.1-6.2s3.4-2.2,6-2.2
	c2.6,0,4.6,0.7,6,2.2c1.4,1.5,2.1,3.6,2.1,6.2V33z M124,31.4v-0.3c0-2-0.4-3.4-1.2-4.3c-0.8-0.9-2-1.3-3.6-1.3
	c-3.3,0-4.9,1.9-4.9,5.6v0.3H124z"/>
<path fill="#88A73D" d="M140.6,24.8c0,0.4-0.3,0.6-0.8,0.6c-1.7,0-3.3,0.5-5,1.5V42c0,0.2-0.1,0.4-0.2,0.5c-0.1,0.1-0.3,0.2-0.5,0.2
	h-1.8c-0.2,0-0.4-0.1-0.5-0.2c-0.1-0.1-0.2-0.3-0.2-0.5V23.7c0-0.2,0.1-0.4,0.2-0.5c0.1-0.1,0.3-0.2,0.5-0.2h1.7
	c0.2,0,0.4,0.1,0.5,0.2c0.1,0.1,0.2,0.3,0.2,0.5v0.8c1.7-1.1,3.4-1.7,5.1-1.7c0.5,0,0.8,0.2,0.8,0.6V24.8z"/>
<path fill="#88A73D" d="M157,42c0,0.2-0.1,0.4-0.2,0.5c-0.1,0.1-0.3,0.2-0.5,0.2h-1.7c-0.2,0-0.4-0.1-0.5-0.2
	c-0.1-0.1-0.2-0.3-0.2-0.5v-0.8c-2,1.2-3.9,1.8-5.6,1.8c-1.8,0-3.2-0.4-4.3-1.3s-1.7-2.4-1.7-4.5v-0.4c0-2,0.7-3.5,2-4.4
	c1.3-0.9,3.6-1.4,6.8-1.4h2.7v-1.4c0-1.5-0.3-2.6-0.9-3.2c-0.6-0.6-1.6-0.9-3-0.9c-1.8,0-3.6,0.1-5.6,0.3h-0.2
	c-0.4,0-0.7-0.2-0.7-0.6v-1.3c0-0.4,0.3-0.6,0.8-0.7c1.8-0.3,3.7-0.5,5.7-0.5c4.7,0,7.1,2.3,7.1,6.8V42z M153.8,38.9v-5.8h-2.7
	c-2.2,0-3.6,0.3-4.4,0.8c-0.8,0.5-1.2,1.4-1.2,2.7v0.4c0,1.2,0.3,2.1,0.8,2.6c0.5,0.5,1.4,0.7,2.5,0.7
	C150.4,40.4,152,39.9,153.8,38.9z"/>
<path fill="#88A73D" d="M171.8,42.2c0,0.3-0.2,0.5-0.7,0.6c-0.8,0.1-1.6,0.2-2.4,0.2c-1.8,0-3-0.3-3.8-1c-0.8-0.7-1.1-1.9-1.1-3.8
	V25.6l-3.5-0.4c-0.5,0-0.7-0.3-0.7-0.6v-1c0-0.4,0.2-0.6,0.7-0.6h3.5v-3.5c0-0.4,0.2-0.6,0.7-0.7l1.9-0.3h0.1c0.4,0,0.5,0.2,0.5,0.6
	v3.9h3.9c0.2,0,0.4,0.1,0.5,0.2c0.1,0.1,0.2,0.3,0.2,0.5v1.2c0,0.2-0.1,0.4-0.2,0.5c-0.1,0.1-0.3,0.2-0.5,0.2H167v12.5
	c0,1,0.1,1.6,0.4,1.9s0.8,0.4,1.6,0.4h2c0.5,0,0.8,0.2,0.8,0.5V42.2z"/>
<path fill="#88A73D" d="M190.6,33c0,0.5-0.2,0.8-0.7,0.8h-12.2v0.5c0,2.1,0.4,3.6,1.2,4.5c0.8,0.9,2.1,1.4,3.8,1.4
	c2.6,0,4.7-0.1,6.5-0.4h0.2c0.4,0,0.6,0.2,0.6,0.5v1.2c0,0.5-0.2,0.7-0.7,0.8c-2.1,0.4-4.3,0.6-6.5,0.6c-1.1,0-2.1-0.1-3.1-0.4
	c-0.9-0.3-1.8-0.7-2.6-1.4s-1.4-1.5-1.9-2.7c-0.5-1.2-0.7-2.5-0.7-4.2v-3.2c0-2.6,0.7-4.7,2.1-6.2s3.4-2.2,6-2.2
	c2.6,0,4.6,0.7,6,2.2c1.4,1.5,2.1,3.6,2.1,6.2V33z M187.4,31.4v-0.3c0-2-0.4-3.4-1.2-4.3c-0.8-0.9-2-1.3-3.6-1.3
	c-3.3,0-4.9,1.9-4.9,5.6v0.3H187.4z"/>
</svg>
