<?xml version="1.0" encoding="utf-8"?>
<!-- Generator: Adobe Illustrator 19.1.0, SVG Export Plug-In . SVG Version: 6.00 Build 0)  -->
<svg version="1.1" id="Layer_1" xmlns="http://www.w3.org/2000/svg" xmlns:xlink="http://www.w3.org/1999/xlink" x="0px" y="0px"
	 viewBox="0 0 90.708664 22.677166" enable-background="new 0 0 90.708664 22.677166" xml:space="preserve">
<polygon fill="#88A61B" points="12.998981,17.105768 16.663229,10.759042 15.441837,8.643466 12.998943,12.874618 9.334697,6.52789 
	19.106123,6.52789 20.327551,4.412314 5.670412,4.412314 "/>
<polygon fill="#88A61B" points="25.213264,17.105898 23.991837,14.990323 19.106123,14.990323 23.991837,6.52789 
	22.770407,4.412314 15.441837,17.105898 "/>
<g>
	<path fill="#88A61B" d="M30.642153,7.568725c1.81885,0,3.459963,1.389648,3.459963,3.81543
		c0,2.40918-1.641113,3.799805-3.459963,3.799805c-1.803711,0-3.444824-1.390625-3.444824-3.799805
		C27.197329,8.958373,28.838442,7.568725,30.642153,7.568725z M30.642153,13.793334c1.064453,0,1.715334-0.960938,1.715334-2.40918
		c0-1.463867-0.650881-2.425781-1.715334-2.425781s-1.700195,0.961914-1.700195,2.425781
		C28.941957,12.832397,29.5777,13.793334,30.642153,13.793334z"/>
	<path fill="#88A61B" d="M37.48737,15.598022v2.276368h-1.700195V7.746459h1.404297l0.118652,0.768555h0.059082
		c0.605957-0.517578,1.389648-0.946289,2.187988-0.946289c1.804199,0,2.854004,1.449219,2.854004,3.696289
		c0,2.484375-1.493652,3.918945-3.105469,3.918945c-0.635742,0-1.271484-0.295898-1.862793-0.798828L37.48737,15.598022z
		 M38.951237,13.778686c0.960938,0,1.700195-0.857422,1.700195-2.498047c0-1.449219-0.473145-2.306641-1.567383-2.306641
		c-0.532227,0-1.034668,0.265625-1.59668,0.8125v3.386719C38.019596,13.616576,38.522526,13.778686,38.951237,13.778686z"/>
	<path fill="#88A61B" d="M46.993717,7.568725c1.966797,0,3.001465,1.419922,3.001465,3.445313
		c0,0.325195-0.029297,0.621094-0.07373,0.798828H45.30817c0.147949,1.31543,0.976074,2.054688,2.144043,2.054688
		c0.621094,0,1.15332-0.192383,1.685547-0.532227l0.57666,1.064453c-0.694824,0.458984-1.567383,0.78418-2.483887,0.78418
		c-2.01123,0-3.578125-1.405273-3.578125-3.799805C43.652409,9.017943,45.293522,7.568725,46.993717,7.568725z M48.516666,10.732787
		c0-1.15332-0.487793-1.847656-1.478516-1.847656c-0.857422,0-1.59668,0.635742-1.744629,1.847656H48.516666z"/>
	<path fill="#88A61B" d="M51.621159,7.746459h1.404297l0.118652,1.286133h0.059082
		c0.51709-0.946289,1.286133-1.463867,2.055176-1.463867c0.369629,0,0.605957,0.044922,0.827637,0.148438l-0.29541,1.478516
		c-0.251465-0.074219-0.443848-0.118164-0.753906-0.118164c-0.57666,0-1.271973,0.398438-1.715332,1.493164v4.435547h-1.700195
		V7.746459z"/>
	<path fill="#88A61B" d="M60.698795,10.363647c-0.014648-0.768555-0.340332-1.419922-1.315918-1.419922
		c-0.724609,0-1.404785,0.325195-2.040527,0.709961l-0.621094-1.138672c0.79834-0.50293,1.818848-0.946289,2.972168-0.946289
		c1.818359,0,2.705566,1.109375,2.705566,3.134766v4.302734h-1.389648l-0.133301-0.798828h-0.044434
		c-0.650391,0.547852-1.389648,0.976563-2.24707,0.976563c-1.271484,0-2.158691-0.857422-2.158691-2.129883
		C56.425846,11.502318,57.726627,10.688842,60.698795,10.363647z M59.116764,13.852904
		c0.591309,0,1.049805-0.295898,1.582031-0.798828V11.4281c-1.966797,0.250977-2.617188,0.768555-2.617188,1.493164
		C58.081608,13.571654,58.510319,13.852904,59.116764,13.852904z"/>
	<path fill="#88A61B" d="M64.719299,9.092162h-1.034664V7.820678l1.123531-0.074219l0.207031-1.981445h1.419434v1.981445h1.848145
		v1.345703h-1.848145v3.459961c0,0.857422,0.325195,1.271484,1.02002,1.271484c0.251465,0,0.547363-0.074219,0.754395-0.163086
		l0.29541,1.256836c-0.398926,0.132813-0.901855,0.266602-1.478516,0.266602c-1.685547,0-2.306641-1.064453-2.306641-2.631836
		V9.092162z"/>
	<path fill="#88A61B" d="M72.52594,7.568725c1.966797,0,3.001465,1.419922,3.001465,3.445313
		c0,0.325195-0.029297,0.621094-0.07373,0.798828h-4.613281c0.147949,1.31543,0.976074,2.054688,2.144043,2.054688
		c0.621094,0,1.15332-0.192383,1.685547-0.532227l0.57666,1.064453c-0.694824,0.458984-1.567383,0.78418-2.483887,0.78418
		c-2.01123,0-3.578125-1.405273-3.578125-3.799805C69.184631,9.017943,70.825745,7.568725,72.52594,7.568725z M74.048889,10.732787
		c0-1.15332-0.487793-1.847656-1.478516-1.847656c-0.857422,0-1.59668,0.635742-1.744629,1.847656H74.048889z"/>
</g>
</svg>
