<?xml version="1.0" encoding="utf-8"?>
<!-- Generator: Adobe Illustrator 19.1.0, SVG Export Plug-In . SVG Version: 6.00 Build 0)  -->
<svg version="1.1" id="Layer_1" xmlns="http://www.w3.org/2000/svg" xmlns:xlink="http://www.w3.org/1999/xlink" x="0px" y="0px"
	 viewBox="0 0 412.0441 102.7842" enable-background="new 0 0 412.0441 102.7842" xml:space="preserve">
<g>
	<path fill="#88A73D" d="M136.1317,38.7353c7.0234,0,13.2793,5.4883,13.2793,15.1093c0,9.5039-6.2558,14.9921-13.2793,14.9921
		c-7.0234,0-13.2793-5.4883-13.2793-14.9921C122.8525,44.2236,129.1083,38.7353,136.1317,38.7353z M136.1317,64.8251
		c4.959,0,8.2637-4.4297,8.2637-10.9804c0-6.6094-3.3047-11.0937-8.2637-11.0937c-4.8984,0-8.2617,4.4844-8.2617,11.0937
		C127.8701,60.3954,131.2333,64.8251,136.1317,64.8251z"/>
	<path fill="#88A73D" d="M161.7957,70.5477v9.6797h-4.8398V39.4462h4.0137l0.4121,3.3047h0.1777
		c2.5976-2.1836,5.7832-4.0156,9.1484-4.0156c7.3769,0,11.332,5.7265,11.332,14.6367c0,9.7383-5.8437,15.4648-12.3945,15.4648
		c-2.6562,0-5.3125-1.2383-7.9687-3.3047L161.7957,70.5477z M168.8192,64.7665c4.7207,0,8.2031-4.3086,8.2031-11.3945
		c0-6.3125-2.125-10.5625-7.5547-10.5625c-2.4199,0-4.8398,1.3555-7.6718,3.8945v15.0507
		C164.3914,63.9384,166.9305,64.7665,168.8192,64.7665z"/>
	<path fill="#88A73D" d="M200.4441,38.7353c7.3183,0,11.4492,5.2539,11.4492,13.457c0,1.0039-0.0586,1.9492-0.1758,2.6562h-19.3593
		c0.3535,6.1992,4.0723,10.0937,9.5605,10.0937c2.7148,0,5.0176-0.8867,7.1426-2.2422l1.7109,3.1875
		c-2.4785,1.5937-5.5488,2.9492-9.4433,2.9492c-7.6719,0-13.7519-5.6055-13.7519-14.9921
		C187.5769,44.4618,193.8914,38.7353,200.4441,38.7353z M207.6433,51.661c0-5.8437-2.5957-9.0898-7.082-9.0898
		c-4.0137,0-7.6719,3.3086-8.2617,9.0898H207.6433z"/>
	<path fill="#88A73D" d="M218.9675,39.4462h4.0137l0.4121,5.1914h0.1777c1.9473-3.5976,4.8984-5.9023,8.1445-5.9023
		c1.2402,0,2.125,0.1797,3.0703,0.5898l-0.9453,4.25c-0.9434-0.293-1.5938-0.4727-2.7734-0.4727
		c-2.4199,0-5.3125,1.7734-7.2598,6.6133v18.414h-4.8398V39.4462z"/>
	<path fill="#88A73D" d="M254.1959,49.9501c0-3.6601-1.2383-7.1992-5.9023-7.1992c-3.3633,0-6.3144,1.5351-8.5586,3.0664
		l-1.9473-3.3633c2.6562-1.7109,6.6699-3.7187,11.2734-3.7187c7.0234,0,9.9746,4.664,9.9746,11.8047v17.5898h-4.0137l-0.4121-3.4258
		h-0.1191c-2.7734,2.2461-5.9609,4.1328-9.5019,4.1328c-4.8398,0-8.4394-3.0117-8.4394-8.1445
		C236.5494,54.4345,241.9791,51.3095,254.1959,49.9501z M246.3463,64.9423c2.7734,0,5.0762-1.3594,7.8496-3.8359v-7.9687
		c-9.6211,1.1797-12.8672,3.543-12.8672,7.1992C241.3287,63.5829,243.5123,64.9423,246.3463,64.9423z"/>
	<path fill="#88A73D" d="M269.0005,43.3994h-4.25v-3.6601l4.4863-0.293l0.5898-8.0273h4.0723v8.0273h7.7324v3.9531h-7.7324v15.9335
		c0,3.543,1.1211,5.5508,4.4277,5.5508c1.002,0,2.3008-0.4141,3.2461-0.7695l0.9434,3.6601
		c-1.5938,0.5313-3.541,1.0625-5.3125,1.0625c-6.1367,0-8.2031-3.8945-8.2031-9.5625V43.3994z"/>
	<path fill="#88A73D" d="M298.27,38.7353c7.3184,0,11.4492,5.2539,11.4492,13.457c0,1.0039-0.0586,1.9492-0.1758,2.6562h-19.3593
		c0.3535,6.1992,4.0723,10.0937,9.5605,10.0937c2.7148,0,5.0176-0.8867,7.1426-2.2422l1.7109,3.1875
		c-2.4785,1.5937-5.5488,2.9492-9.4433,2.9492c-7.6718,0-13.7519-5.6055-13.7519-14.9921
		C285.4028,44.4618,291.7173,38.7353,298.27,38.7353z M305.4692,51.661c0-5.8437-2.5957-9.0898-7.082-9.0898
		c-4.0136,0-7.6718,3.3086-8.2617,9.0898H305.4692z"/>
</g>
<polyline fill="#88A73D" points="94.6428,68.524 114.4443,68.4785 109.4714,77.0875 79.8014,77.0874 109.4718,25.6967 
	109.4718,25.6967 114.4443,34.2621 109.4739,42.8305 94.6405,68.5227 "/>
<polyline fill="#88A73D" points="69.9086,59.9527 79.7942,42.827 84.7392,51.3925 69.904,77.0875 40.2336,25.6968 99.5745,25.6968 
	94.6294,34.2618 55.0729,34.2618 69.9063,59.9541 "/>
</svg>
