<svg xmlns="http://www.w3.org/2000/svg" viewBox="0 0 96 16"><title>gloperate-logo</title><polygon points="8.982 14.347 12.647 8 11.425 5.884 8.982 10.116 5.318 3.769 15.089 3.769 16.311 1.653 1.654 1.653 8.982 14.347" style="fill:#88a61b"/><polygon points="21.197 14.347 19.975 12.231 15.089 12.231 19.975 3.769 18.754 1.653 11.425 14.347 21.197 14.347" style="fill:#88a61b"/><path d="M23.1806,8.6247a3.47,3.47,0,1,1,6.9048,0,3.4683,3.4683,0,1,1-6.9048,0Zm5.16,0c0-1.4639-.6509-2.4258-1.7153-2.4258s-1.7.9619-1.7,2.4258c0,1.4482.6357,2.4092,1.7,2.4092S28.3408,10.0729,28.3408,8.6247Z" style="fill:#88a61b"/><path d="M31.7705,4.987h1.4043l.1186.7685h.0591a3.539,3.539,0,0,1,2.188-.9463c1.8042,0,2.854,1.4493,2.854,3.6963,0,2.4844-1.4936,3.919-3.1055,3.919a2.9351,2.9351,0,0,1-1.8628-.7989l.0445,1.2129v2.2764h-1.7Zm4.8642,3.5342c0-1.4493-.4731-2.3067-1.5673-2.3067a2.3187,2.3187,0,0,0-1.5967.8125v3.3867a2.2956,2.2956,0,0,0,1.4638.6055C35.8955,11.0192,36.6347,10.1618,36.6347,8.5212Z" style="fill:#88a61b"/><path d="M39.6357,8.6247A3.5332,3.5332,0,0,1,42.977,4.8092c1.9668,0,3.0015,1.42,3.0015,3.4454a3.9657,3.9657,0,0,1-.0737.8281H41.2915a2.0781,2.0781,0,0,0,2.144,2.0254,3.0341,3.0341,0,0,0,1.6856-.5323l.5766,1.0645a4.5759,4.5759,0,0,1-2.4839.7842A3.5007,3.5007,0,0,1,39.6357,8.6247ZM44.5,7.9294c0-1.1241-.4878-1.8038-1.4785-1.8038a1.8234,1.8234,0,0,0-1.7447,1.8038Z" style="fill:#88a61b"/><path d="M47.6045,4.987h1.4043l.1186,1.2861h.0591a2.4656,2.4656,0,0,1,2.0552-1.4639,1.842,1.842,0,0,1,.8276.1485l-.2954,1.4785A2.3673,2.3673,0,0,0,51.02,6.318c-.5767,0-1.272.3985-1.7153,1.4932v4.4355h-1.7Z" style="fill:#88a61b"/><path d="M52.35,10.2946c0-1.5518,1.2866-2.3652,4.2729-2.69-.0293-.7686-.34-1.42-1.3305-1.42a4.1355,4.1355,0,0,0-2.0406.71l-.6206-1.1387a5.6757,5.6757,0,0,1,2.9864-.9463c1.8042,0,2.706,1.1094,2.706,3.1348v4.3027H56.9184L56.8,11.4479h-.0591a3.5324,3.5324,0,0,1-2.2476.9766A2.03,2.03,0,0,1,52.35,10.2946Zm4.2729,0V8.6686c-1.9809.251-2.6318.7686-2.6318,1.4932,0,.65.4438.9316,1.05.9316A2.3064,2.3064,0,0,0,56.6225,10.2946Z" style="fill:#88a61b"/><path d="M60.3779,9.7926v-3.46H59.3432V5.0612l1.1236-.0742.207-1.9815h1.4194V4.987h1.8482V6.3327H62.0932v3.46c0,.8575.3252,1.2715,1.02,1.2715a2.0789,2.0789,0,0,0,.7543-.1631l.2955,1.2569a4.6426,4.6426,0,0,1-1.4786.2666C60.999,12.4245,60.3779,11.36,60.3779,9.7926Z" style="fill:#88a61b"/><path d="M64.7544,8.6247a3.5332,3.5332,0,0,1,3.3413-3.8155c1.9663,0,3.0014,1.42,3.0014,3.4454a3.9657,3.9657,0,0,1-.0737.8281H66.41a2.0782,2.0782,0,0,0,2.1441,2.0254,3.0335,3.0335,0,0,0,1.6855-.5323l.5767,1.0645a4.5759,4.5759,0,0,1-2.4839.7842A3.5007,3.5007,0,0,1,64.7544,8.6247Zm4.8642-.6953c0-1.1241-.4878-1.8038-1.4785-1.8038a1.8233,1.8233,0,0,0-1.7446,1.8038Z" style="fill:#88a61b"/></svg>